<svg xmlns="http://www.w3.org/2000/svg" xmlns:xlink="http://www.w3.org/1999/xlink" viewBox="0 0 1422.47 554.27"><defs><style>.cls-1{fill:none;}.cls-2,.cls-28{fill:#f48220;}.cls-3{fill:#2c367e;}.cls-4{clip-path:url(#clip-path);}.cls-5{fill:url(#linear-gradient);}.cls-6{clip-path:url(#clip-path-2);}.cls-7{fill:url(#linear-gradient-2);}.cls-8{clip-path:url(#clip-path-3);}.cls-9{fill:url(#linear-gradient-3);}.cls-10{clip-path:url(#clip-path-4);}.cls-11{fill:url(#linear-gradient-4);}.cls-12{clip-path:url(#clip-path-5);}.cls-13{fill:url(#linear-gradient-5);}.cls-14{clip-path:url(#clip-path-6);}.cls-15{fill:url(#linear-gradient-6);}.cls-16{clip-path:url(#clip-path-7);}.cls-17{fill:url(#linear-gradient-7);}.cls-18{clip-path:url(#clip-path-8);}.cls-19{fill:url(#linear-gradient-8);}.cls-20{clip-path:url(#clip-path-9);}.cls-21{fill:url(#linear-gradient-9);}.cls-22{clip-path:url(#clip-path-10);}.cls-23{fill:url(#linear-gradient-10);}.cls-24{clip-path:url(#clip-path-11);}.cls-25{fill:url(#linear-gradient-11);}.cls-26{fill:url(#linear-gradient-12);}.cls-27{fill:url(#linear-gradient-13);}.cls-28{fill-rule:evenodd;}</style><clipPath id="clip-path"><path class="cls-1" d="M425.41,135.07a6.32,6.32,0,1,1,6.32,6.32,6.33,6.33,0,0,1-6.32-6.32M294.6,34.48a6.32,6.32,0,1,1,6.31,6.32,6.32,6.32,0,0,1-6.31-6.32m-8.21,0a14.52,14.52,0,0,0,27.93,5.57A238.93,238.93,0,0,1,368.38,55.6L358,79.49l-2.54,6.19,3.66,1.61a207.41,207.41,0,0,1,60.13,40.44,14.48,14.48,0,1,0,12.47-7.19,14.3,14.3,0,0,0-6.45,1.59,215,215,0,0,0-59.19-40.68l13.08-30.09-3.73-1.65a247.57,247.57,0,0,0-60.26-17.87,14.52,14.52,0,0,0-28.79,2.64"/></clipPath><linearGradient id="linear-gradient" x1="-2129.53" y1="1349.49" x2="-2129.01" y2="1349.49" gradientTransform="translate(1537173.72 2425101.67) rotate(90) scale(1138.81)" gradientUnits="userSpaceOnUse"><stop offset="0" stop-color="#3fbfb9"/><stop offset="1" stop-color="#3b54a3"/></linearGradient><clipPath id="clip-path-2"><path class="cls-1" d="M63.34,155.12h0a6.33,6.33,0,0,1,.55-11.67,6.38,6.38,0,0,1,2.14-.37,6.32,6.32,0,0,1,2.15,12.27,6.25,6.25,0,0,1-4.84-.23M210.49,80.81a6.31,6.31,0,1,1,4.84.23,6.25,6.25,0,0,1-4.84-.23m-2.22-19.38a14.36,14.36,0,0,0-9.55,14,215.37,215.37,0,0,0-62,36.22L115.06,87,112,89.68a247.39,247.39,0,0,0-41.14,46.09,14.39,14.39,0,0,0-18,7.45,14.53,14.53,0,0,0,26.29,12.37,14.21,14.21,0,0,0-1.7-15,239.05,239.05,0,0,1,36.83-42l17.2,19.56,4.52,4.93,3-2.62a207,207,0,0,1,62.19-37.19,14.24,14.24,0,0,0,5.77,5h0a14.53,14.53,0,0,0,19.33-7,14.51,14.51,0,0,0-18.06-19.84"/></clipPath><linearGradient id="linear-gradient-2" x1="-2129.53" y1="1349.31" x2="-2129.01" y2="1349.31" gradientTransform="translate(1539514.63 2429488) rotate(90) scale(1140.86)" xlink:href="#linear-gradient"/><clipPath id="clip-path-3"><path class="cls-1" d="M250.45,30.46a247.9,247.9,0,0,0-87.57,25.76A10.79,10.79,0,1,0,165.65,69a10.59,10.59,0,0,0,.79-6.68,241.41,241.41,0,0,1,82-24.54l5.13,33.27,4.37-.11a198.48,198.48,0,0,1,56.49,2.76A10.78,10.78,0,1,0,315,66c-.09.18-.13.37-.2.55A206.19,206.19,0,0,0,259.6,63.7L254.41,30Z"/></clipPath><linearGradient id="linear-gradient-3" x1="-2129.53" y1="1349.39" x2="-2129.01" y2="1349.39" gradientTransform="translate(1537862.63 2426572.71) rotate(90) scale(1139.5)" xlink:href="#linear-gradient"/><clipPath id="clip-path-4"><path class="cls-1" d="M67.57,413.75a6.32,6.32,0,0,1,4.86-10.34l.6,0a6.31,6.31,0,0,1,5.7,6.88,6.33,6.33,0,0,1-6.28,5.73,6.28,6.28,0,0,1-4.88-2.3M64.71,251.33a6.17,6.17,0,0,1-1.42-4.63A6.31,6.31,0,0,1,69.56,241a4.09,4.09,0,0,1,.61,0,6.22,6.22,0,0,1,4.27,2.26,6.3,6.3,0,0,1-4.86,10.34h0a6.29,6.29,0,0,1-4.86-2.28M60.32,236.1a14.48,14.48,0,0,0,3.39,24.46,215.17,215.17,0,0,0,6.38,71.49l-31.52,9.1,1.11,3.93a247.32,247.32,0,0,0,22.69,54.28A14.49,14.49,0,0,0,81.7,420.93h0a14.52,14.52,0,0,0-7.89-25.65,14.63,14.63,0,0,0-4.19.28,239.41,239.41,0,0,1-20.91-48.79l25-7.23,6.39-2-1.08-3.85a207,207,0,0,1-7.19-72.07,14.25,14.25,0,0,0,7-3.13h0A14.55,14.55,0,0,0,80.77,238a14.39,14.39,0,0,0-9.82-5.2,13.26,13.26,0,0,0-1.4-.07,14.43,14.43,0,0,0-9.23,3.33"/></clipPath><linearGradient id="linear-gradient-4" x1="-2129.53" y1="1349.24" x2="-2129.01" y2="1349.24" gradientTransform="translate(1536912.09 2425626.19) rotate(90) scale(1139.05)" xlink:href="#linear-gradient"/><clipPath id="clip-path-5"><path class="cls-1" d="M106.54,138.42a10.78,10.78,0,0,0-2.1,14.24A205,205,0,0,0,79,200.45l-32.66-9.63-1.32,3.75a248.21,248.21,0,0,0-14,90.21,11.05,11.05,0,0,0-2.47,1.49,10.9,10.9,0,1,0,9.52-2.12A241,241,0,0,1,50.83,199.5L83.12,209l1.76-4A198.69,198.69,0,0,1,110,157a10.8,10.8,0,1,0-3.5-18.57"/></clipPath><linearGradient id="linear-gradient-5" x1="-2129.53" y1="1349.25" x2="-2129.01" y2="1349.25" gradientTransform="translate(1537260.3 2426140.24) rotate(90) scale(1139.29)" xlink:href="#linear-gradient"/><clipPath id="clip-path-6"><path class="cls-1" d="M304.64,525.23a6.33,6.33,0,0,1,1.65-11.57,6.56,6.56,0,0,1,1.57-.2,6.32,6.32,0,0,1,1.58,12.45,6.19,6.19,0,0,1-1.59.2,6.33,6.33,0,0,1-3.21-.88M152.83,455.5a6.34,6.34,0,0,1,4.55-7.7,6.15,6.15,0,0,1,1.59-.21,6.36,6.36,0,0,1,6.11,4.75h0a6.28,6.28,0,0,1-.68,4.79,6.35,6.35,0,0,1-3.88,2.91,7,7,0,0,1-1.57.19,6.32,6.32,0,0,1-6.12-4.74m2.51-15.65A14.52,14.52,0,0,0,159,468.44a14.08,14.08,0,0,0,3.61-.46,14.35,14.35,0,0,0,5.85-3.12,215.47,215.47,0,0,0,67.44,24.68l-5.18,32.39,4,.67A247.54,247.54,0,0,0,275.28,526c6.38,0,12.77-.34,19.14-.83a14.39,14.39,0,0,0,13.42,9.19,14.57,14.57,0,0,0,14.09-18.14h0a14.52,14.52,0,0,0-26.57-3.77,14.7,14.7,0,0,0-1.69,4.53,239.67,239.67,0,0,1-53.6-1.78l4.11-25.72.91-6.63-3.93-.66a207,207,0,0,1-68.3-24.2,14.4,14.4,0,0,0-6.51-16.53,14.51,14.51,0,0,0-11-1.56"/></clipPath><linearGradient id="linear-gradient-6" x1="-2129.53" y1="1349.38" x2="-2129.01" y2="1349.38" gradientTransform="translate(1537997.78 2426806.5) rotate(90) scale(1139.61)" xlink:href="#linear-gradient"/><clipPath id="clip-path-7"><path class="cls-1" d="M82.41,359.77a10.8,10.8,0,0,0,5,21,204.9,204.9,0,0,0,33.15,44.65L98,450.88l2.85,2.78a247.86,247.86,0,0,0,75.67,51,10.56,10.56,0,0,0,.29,2.89,10.89,10.89,0,1,0,2.13-9.53,240.75,240.75,0,0,1-71.18-47.54l22.36-25.15-2.86-3.31a199.16,199.16,0,0,1-33.77-45,10.78,10.78,0,0,0-11-17.29"/></clipPath><linearGradient id="linear-gradient-7" x1="-2129.53" y1="1349.3" x2="-2129.01" y2="1349.3" gradientTransform="translate(1535963.31 2423895.65) rotate(90) scale(1138.24)" xlink:href="#linear-gradient"/><clipPath id="clip-path-8"><path class="cls-1" d="M384.36,463.87a6.23,6.23,0,0,1-4-2.65,6.32,6.32,0,0,1,5.21-9.88,6.09,6.09,0,0,1,1.2.11h0A6.33,6.33,0,0,1,385.55,464a6,6,0,0,1-1.19-.12m124.1-109.69a6.32,6.32,0,0,1,1.17-12.53,6.84,6.84,0,0,1,1.19.11h0a6.33,6.33,0,0,1-1.18,12.54,6.08,6.08,0,0,1-1.19-.12m-7-18.23a14.55,14.55,0,0,0-3.85,20.19A14.3,14.3,0,0,0,501,359.6a239.64,239.64,0,0,1-25.53,50.74L454,395.66,448.35,392l-2.26,3.28a207.21,207.21,0,0,1-51,51.5,14.7,14.7,0,1,0,4.37,7,215.13,215.13,0,0,0,51-50.52l27.11,18.48,2.32-3.35a247,247,0,0,0,28.88-55.95c.29,0,.57.08.85.08a14.53,14.53,0,1,0-8.2-26.55"/></clipPath><linearGradient id="linear-gradient-8" x1="-2129.53" y1="1349.56" x2="-2129.01" y2="1349.56" gradientTransform="translate(1536436.46 2423690.33) rotate(90) scale(1138.14)" xlink:href="#linear-gradient"/><clipPath id="clip-path-9"><path class="cls-1" d="M433.1,451.76a10.67,10.67,0,0,0,.89,6.65,240.82,240.82,0,0,1-73.33,44.17l-13.23-30.95-4.21,1.19a198.76,198.76,0,0,1-55,11.38,10.79,10.79,0,1,0,.83,7,204.42,204.42,0,0,0,54.38-11l13.41,31.33,3.72-1.41A247.72,247.72,0,0,0,439,463.44a11.06,11.06,0,0,0,2.73,1,10.82,10.82,0,0,0,4.07-21.25,11,11,0,0,0-2.05-.19,10.82,10.82,0,0,0-10.61,8.8"/></clipPath><linearGradient id="linear-gradient-9" x1="-2129.53" y1="1349.49" x2="-2129.01" y2="1349.49" gradientTransform="translate(1535263.22 2422105.55) rotate(90) scale(1137.4)" xlink:href="#linear-gradient"/><clipPath id="clip-path-10"><path class="cls-1" d="M481.7,259.34a6.31,6.31,0,0,1-1.4-8.82h0a6.28,6.28,0,0,1,4.13-2.52,6.74,6.74,0,0,1,1-.08,6.32,6.32,0,0,1,3.7,1.21,6.31,6.31,0,0,1-2.72,11.35,5.63,5.63,0,0,1-1,.09,6.27,6.27,0,0,1-3.71-1.22M415.5,84.94a6.31,6.31,0,0,1-1.39-8.83h0a6.27,6.27,0,0,1,4.12-2.53,6.73,6.73,0,0,1,1-.07,6.26,6.26,0,0,1,5.45,9.43l-.73,1a6,6,0,0,1-4.72,2.24,6.28,6.28,0,0,1-3.73-1.2M417,65.48a14.52,14.52,0,0,0,2.24,28.87,13.8,13.8,0,0,0,2.3-.18,14.3,14.3,0,0,0,6.32-2.7,238.69,238.69,0,0,1,53.08,61.23l-22.44,13.23-5.7,3.52,2,3.45A207.24,207.24,0,0,1,479.65,241a14.48,14.48,0,0,0-2.77,25,14.53,14.53,0,1,0,10.92-26,214.72,214.72,0,0,0-24-67.69l28.26-16.66-2-3.52a246.83,246.83,0,0,0-57.31-67.15,14.49,14.49,0,0,0-13.49-19.65,15.1,15.1,0,0,0-2.31.19"/></clipPath><linearGradient id="linear-gradient-10" x1="-2129.53" y1="1349.56" x2="-2129.01" y2="1349.56" gradientTransform="translate(1536966.72 2424513.2) rotate(90) scale(1138.53)" xlink:href="#linear-gradient"/><clipPath id="clip-path-11"><path class="cls-1" d="M497.92,193.58a10.79,10.79,0,0,0,2.39,15.1,10.65,10.65,0,0,0,6.41,2,241.11,241.11,0,0,1,8.74,85.15l-33.64-1.2-.71,4.31a199,199,0,0,1-12.87,53.9,10.83,10.83,0,1,0,6.66,2.39,205.41,205.41,0,0,0,13-53.31l34,1.21.33-4a248,248,0,0,0-8.9-90.84,10.54,10.54,0,0,0,2-2.07,10.81,10.81,0,1,0-17.5-12.71"/></clipPath><linearGradient id="linear-gradient-11" x1="-2129.53" y1="1349.59" x2="-2129.01" y2="1349.59" gradientTransform="translate(1537103.57 2424612.71) rotate(90) scale(1138.58)" xlink:href="#linear-gradient"/><linearGradient id="linear-gradient-12" x1="277.14" y1="-12.39" x2="277.14" y2="576.29" gradientUnits="userSpaceOnUse"><stop offset="0" stop-color="#1daee5"/><stop offset="1" stop-color="#31357e"/></linearGradient><linearGradient id="linear-gradient-13" x1="277.14" y1="-10.65" x2="277.14" y2="578.12" xlink:href="#linear-gradient-12"/></defs><title>Asset 2</title><g id="Layer_2" data-name="Layer 2"><g id="Layer_1-2" data-name="Layer 1"><path class="cls-2" d="M707.36,319.56H596.53V212.26H706.32v18.3H621.48v23.91H671v18.3H621.48v26.62h85.88Z"/><path class="cls-2" d="M857.7,275.27q0,44.28-58.23,44.29H745.62v-88h59.26q23.49,0,37.22,9.77Q857.7,252.82,857.7,275.27Zm-22-1q0-26.82-30.57-26.83H767.24v55.73H794.9q19.76,0,28.49-4.57Q835.65,291.9,835.66,274.23Z"/><path class="cls-3" d="M1014.3,294.19q0,15-5.82,20.17t-21,5.2H921.14q-16.42,0-21.62-5.83t-5.2-22.45l22-4.58v12.69h75.9V274.85h-67q-15.18,0-20.89-5.2t-5.72-20.17V237.63q0-15,5.72-20.17t20.89-5.2h60.93q15.38,0,21,5.3t5.61,20.49l-22,5.19V231H920.52v23.08h67q15.16,0,21,5.2t5.82,20.17Z"/><path class="cls-3" d="M1169.83,298.76q0,12.48-5,16.64T1147,319.56h-68q-12.9,0-17.89-4.06t-5-16.74V252.39q0-12.67,5-16.73T1079,231.6h68q12.88,0,17.88,4.06t5,16.73Zm-21.41,3.95V247.82h-70.91v54.89Z"/><path class="cls-3" d="M1297.5,319.56h-90.66v-88h21.63v71.53h69Z"/><path class="cls-3" d="M1422.47,298.76q0,12.48-5,16.64t-17.88,4.16h-57.19q-14.13,0-18.61-4.68t-4.47-18.61l19.13-3.54v10.4h64.67V283h-57q-12.9,0-17.68-3.95-5.4-4.36-5.4-16.84v-9.78q0-12.46,5.4-16.84,4.79-3.95,17.68-4h52.19q13.31,0,18.19,4.16t4.89,17.05l-18.51,3.95V247.4h-60.51v18.51h57.19q12.89,0,17.88,4t5,16.74Z"/><path class="cls-2" d="M672,339v32.77h-7.38V339Z"/><path class="cls-2" d="M678.43,371.78V339h8.65l6.81,12a104.14,104.14,0,0,1,5.35,11.23h.09c-.43-4.33-.58-8.75-.58-13.71V339h6.81v32.77h-7.78l-7-12.64a109,109,0,0,1-5.69-11.57h-.2c.25,4.37.35,9,.35,14.34v9.87Z"/><path class="cls-2" d="M712,371.78V339h8.65l6.81,12a104.14,104.14,0,0,1,5.35,11.23h.09a134.56,134.56,0,0,1-.58-13.71V339h6.81v32.77h-7.78l-7-12.64a109,109,0,0,1-5.69-11.57h-.2c.25,4.37.34,9,.34,14.34v9.87Z"/><path class="cls-2" d="M775.5,355.05c0,10.8-6.46,17.26-16.09,17.26S744,365,744,355.59c0-9.82,6.32-17.16,16-17.16C770,338.43,775.5,346,775.5,355.05Zm-23.67.39c0,6.47,3,11,8,11s7.88-4.77,7.88-11.13c0-5.94-2.78-11-7.88-11S751.83,349.07,751.83,355.44Z"/><path class="cls-2" d="M787.75,371.78,777.25,339h8.12l4,13.85c1.12,3.94,2.14,7.64,2.92,11.72h.15c.82-3.94,1.84-7.83,3-11.57l4.18-14h7.88l-11,32.77Z"/><path class="cls-2" d="M816,363.37l-2.33,8.41H806L816,339h9.72l10.21,32.77h-8l-2.53-8.41Zm8.31-5.55-2-6.95c-.58-1.94-1.17-4.37-1.65-6.32h-.1c-.49,1.95-1,4.43-1.51,6.32l-1.94,6.95Z"/><path class="cls-2" d="M842.63,345.23h-8.85V339H859v6.22H850v26.55h-7.39Z"/><path class="cls-2" d="M870.33,339v32.77h-7.39V339Z"/><path class="cls-2" d="M906.74,355.05c0,10.8-6.46,17.26-16.09,17.26s-15.41-7.34-15.41-16.72c0-9.82,6.32-17.16,16-17.16C901.25,338.43,906.74,346,906.74,355.05Zm-23.67.39c0,6.47,3,11,8,11s7.88-4.77,7.88-11.13c0-5.94-2.78-11-7.88-11S883.07,349.07,883.07,355.44Z"/><path class="cls-2" d="M911.6,371.78V339h8.65l6.81,12a104.14,104.14,0,0,1,5.35,11.23h.09c-.43-4.33-.58-8.75-.58-13.71V339h6.81v32.77H931l-7-12.64a109,109,0,0,1-5.69-11.57h-.2c.25,4.37.35,9,.35,14.34v9.87Z"/><path class="cls-2" d="M945.38,364.14a18.78,18.78,0,0,0,8.22,2c3.4,0,5.2-1.4,5.2-3.54s-1.56-3.21-5.49-4.57c-5.45-1.95-9-5-9-9.73,0-5.59,4.72-9.82,12.4-9.82a19,19,0,0,1,8.36,1.66l-1.65,5.93a15.25,15.25,0,0,0-6.81-1.56c-3.21,0-4.76,1.51-4.76,3.16,0,2.09,1.8,3,6.07,4.62,5.79,2.14,8.46,5.15,8.46,9.77,0,5.5-4.18,10.16-13.17,10.16a21.43,21.43,0,0,1-9.29-2Z"/><path class="cls-2" d="M981.2,339.45a60.68,60.68,0,0,1,10-.68c4.57,0,7.83.87,10,2.62a9.44,9.44,0,0,1,3.5,7.59,10.2,10.2,0,0,1-3,7.77c-2.53,2.34-6.27,3.46-10.65,3.46a12.3,12.3,0,0,1-2.52-.2v11.77H981.2Zm7.35,14.87a10.69,10.69,0,0,0,2.47.2c3.94,0,6.37-2,6.37-5.3,0-3-2.09-4.81-5.83-4.81a13,13,0,0,0-3,.24Z"/><path class="cls-2" d="M1009.45,339.45a64.4,64.4,0,0,1,9.86-.68c4.87,0,8.27.73,10.6,2.57a8.31,8.31,0,0,1,3.07,6.91,8.68,8.68,0,0,1-5.79,8v.14c2.28.93,3.55,3.07,4.38,6.08,1,3.74,2,8,2.62,9.29h-7.58a43.32,43.32,0,0,1-2.24-7.64c-.92-4.13-2.33-5.2-5.4-5.25h-2.18v12.89h-7.34Zm7.34,14.1h2.91c3.7,0,5.89-1.85,5.89-4.72s-2-4.52-5.45-4.52a15.09,15.09,0,0,0-3.35.24Z"/><path class="cls-2" d="M1045.71,339v32.77h-7.39V339Z"/><path class="cls-2" d="M1059.85,371.78,1049.35,339h8.12l4,13.85c1.12,3.94,2.14,7.64,2.91,11.72h.15c.83-3.94,1.85-7.83,3-11.57l4.19-14h7.87l-11,32.77Z"/><path class="cls-2" d="M1088.09,363.37l-2.33,8.41h-7.63l10-32.77h9.73L1108,371.78h-8l-2.52-8.41Zm8.32-5.55-2.05-6.95c-.58-1.94-1.16-4.37-1.65-6.32h-.1c-.48,1.95-1,4.43-1.5,6.32l-1.95,6.95Z"/><path class="cls-2" d="M1114.73,345.23h-8.85V339h25.18v6.22h-8.94v26.55h-7.39Z"/><path class="cls-2" d="M1154.49,357.92h-12v7.78h13.46v6.08h-20.85V339h20.17v6.08h-12.78v6.8h12Z"/><path class="cls-2" d="M1170.82,339h7.39v26.54h13v6.23h-20.42Z"/><path class="cls-2" d="M1203.05,339v32.77h-7.39V339Z"/><path class="cls-2" d="M1237.17,359.23c-.14-3.93-.29-8.7-.29-13.46h-.09c-1.07,4.18-2.43,8.84-3.7,12.69l-4,12.78h-5.78l-3.5-12.64c-1.07-3.89-2.14-8.55-3-12.83h-.09c-.15,4.42-.34,9.48-.54,13.56l-.63,12.45h-6.85l2.09-32.77h9.86L1223.9,350c1.07,3.79,2,7.87,2.77,11.71h.2c.87-3.79,2-8.11,3.11-11.76l3.45-10.89h9.72l1.75,32.77h-7.19Z"/><path class="cls-2" d="M1258,339v32.77h-7.39V339Z"/><path class="cls-2" d="M1270.81,345.23H1262V339h25.18v6.22h-8.94v26.55h-7.39Z"/><path class="cls-2" d="M1310.57,357.92h-12.06v7.78H1312v6.08h-20.86V339h20.18v6.08h-12.79v6.8h12.06Z"/><path class="cls-2" d="M1317,339.5a65,65,0,0,1,10-.73c6.27,0,10.35,1.16,13.46,3.5,3.41,2.52,5.55,6.56,5.55,12.34,0,6.28-2.29,10.6-5.4,13.28-3.45,2.87-8.75,4.23-15.17,4.23a64,64,0,0,1-8.41-.49Zm7.39,26.68a13.52,13.52,0,0,0,2.58.15c6.76.05,11.18-3.65,11.18-11.47,0-6.81-4-10.41-10.4-10.41a15.35,15.35,0,0,0-3.36.3Z"/><g class="cls-4"><rect class="cls-5" x="286.39" y="19.96" width="159.87" height="129.64"/></g><g class="cls-6"><rect class="cls-7" x="49.48" y="60.56" width="178.69" height="103.38"/></g><g class="cls-8"><rect class="cls-9" x="143.54" y="30.03" width="193.56" height="52.92"/></g><g class="cls-10"><rect class="cls-11" x="38.57" y="232.77" width="48.69" height="191.48"/></g><g class="cls-12"><rect class="cls-13" x="23.35" y="135.93" width="102.22" height="170.81"/></g><g class="cls-14"><rect class="cls-15" x="142.9" y="439.39" width="181.02" height="94.92"/></g><g class="cls-16"><rect class="cls-17" x="73.14" y="359.42" width="126.06" height="157.44"/></g><g class="cls-18"><rect class="cls-19" x="370.55" y="333.44" width="154.86" height="138.75"/></g><g class="cls-20"><rect class="cls-21" x="266.76" y="442.96" width="188.7" height="68.61"/></g><g class="cls-22"><rect class="cls-23" x="404.26" y="65.29" width="96.11" height="203.46"/></g><g class="cls-24"><rect class="cls-25" x="455.89" y="189.12" width="69.07" height="186.8"/></g><path class="cls-26" d="M102,277.14C102,180.54,180.54,102,277.13,102s175.18,78.58,175.18,175.18S373.73,452.32,277.13,452.32,102,373.74,102,277.14m-8.21,0c0,101.12,82.27,183.39,183.38,183.39s183.39-82.27,183.39-183.39S378.25,93.75,277.13,93.75,93.75,176,93.75,277.14"/><path class="cls-27" d="M8.21,277.14C8.21,128.85,128.85,8.21,277.13,8.21S546.07,128.85,546.07,277.14,425.42,546.06,277.13,546.06,8.21,425.42,8.21,277.14m-8.21,0C0,430,124.32,554.27,277.13,554.27S554.27,430,554.27,277.14,430,0,277.13,0,0,124.32,0,277.14"/><path class="cls-28" d="M277.85,291.4a77.52,77.52,0,0,1,15.07-29.9,53.61,53.61,0,0,1-14.59-14c-.93-1.33-1.89-1.37-2.78,0a53.61,53.61,0,0,1-14.59,14A77.52,77.52,0,0,1,276,291.4c.35,1.18,1.44,1.18,1.82,0m81.22-33.1a116.3,116.3,0,0,1,26.34,74.19c0,39.88-19.63,74.95-49.32,95.19,6.87-16.91,10.85-37,10.85-58.5,0-29-7.24-55.41-19.05-75a96.15,96.15,0,0,1-101.52,0c-11.8,19.56-19,45.94-19,75,0,21.52,4,41.59,10.85,58.5-29.69-20.24-49.32-55.31-49.32-95.19A116.3,116.3,0,0,1,195.2,258.3a72.08,72.08,0,0,1-4.12-12.61,39.84,39.84,0,1,0,4.07-44.12,75.74,75.74,0,0,1,8.18-14.41q-15-18.14-17.77-45.84,14.19,15.84,50.33,19a96.86,96.86,0,0,1,82.49,0q36.14-3.15,50.33-19-2.82,27.7-17.77,45.84a76.32,76.32,0,0,1,8.17,14.42,39.83,39.83,0,1,0,4.08,44.11,72.35,72.35,0,0,1-4.12,12.61"/><path class="cls-28" d="M285.4,324.42c9.35,13.83,16.39,16.64,24,7.44q-9.37,18.9-24,0-9.11,18.87-21.62,0-7.51,17.89-19.22,0,13.45,12.22,18.26-6.94c9.46,14.59,17.95,14.1,22.58-.5"/><path class="cls-28" d="M260.21,418h1.62a7.28,7.28,0,0,1,7.25,7.26v20.56a7.27,7.27,0,0,1-7.25,7.25h-1.62a7.27,7.27,0,0,1-6.46-4,7.29,7.29,0,0,1-7.24,6.8H244.9a7.29,7.29,0,0,1-7.25-6.8,7.27,7.27,0,0,1-6.46,4h-1.61a7.28,7.28,0,0,1-7.26-7.25V425.26a7.29,7.29,0,0,1,7.26-7.26h1.61a7.29,7.29,0,0,1,6.45,3.94v-1.12a7.27,7.27,0,0,1,7.26-7.25h1.61a7.27,7.27,0,0,1,7.25,7.25v1.12a7.3,7.3,0,0,1,6.45-3.94"/><path class="cls-28" d="M323.08,418h1.61a7.29,7.29,0,0,1,7.26,7.26v20.56a7.28,7.28,0,0,1-7.26,7.25h-1.61a7.3,7.3,0,0,1-6.47-4,7.28,7.28,0,0,1-7.24,6.8h-1.61a7.28,7.28,0,0,1-7.24-6.8,7.3,7.3,0,0,1-6.47,4h-1.61a7.28,7.28,0,0,1-7.26-7.25V425.26a7.29,7.29,0,0,1,7.26-7.26h1.61a7.29,7.29,0,0,1,6.45,3.94v-1.12a7.28,7.28,0,0,1,7.26-7.25h1.61a7.28,7.28,0,0,1,7.26,7.25v1.12a7.29,7.29,0,0,1,6.45-3.94"/><path class="cls-28" d="M287.84,356c11.9,17.6,20.87,21.18,30.58,9.47q-11.94,24-30.58,0-11.59,24-27.53,0-9.57,22.77-24.46,0Q253,381,259.09,356.58c12.05,18.58,22.85,17.95,28.75-.63"/><path class="cls-28" d="M227.74,208.48a17.13,17.13,0,1,0,12,3.34,7,7,0,1,1-12-3.34"/><path class="cls-28" d="M325.91,208.48a17.13,17.13,0,1,0,12,3.34,7,7,0,0,1-9.66,7.92,7,7,0,0,1-3.65-9.24,7.23,7.23,0,0,1,1.33-2"/></g></g></svg>